<mxfile host="app.diagrams.net" modified="2023-07-05T06:21:52.197Z" agent="Mozilla/5.0 (Macintosh; Intel Mac OS X 10_15_7) AppleWebKit/605.1.15 (KHTML, like Gecko) Version/16.4 Safari/605.1.15" etag="O22HOuESmxIxaHQMlL0r" version="21.5.2" type="device">
  <diagram name="Page-1" id="YtY9_5xw1rl2pZQEKN6K">
    <mxGraphModel dx="954" dy="624" grid="1" gridSize="10" guides="1" tooltips="1" connect="1" arrows="1" fold="1" page="1" pageScale="1" pageWidth="827" pageHeight="1169" math="0" shadow="0">
      <root>
        <mxCell id="0" />
        <mxCell id="1" parent="0" />
        <mxCell id="hbhCbbF2ej5kDNIO_7wa-1" value="API Gateway" style="rounded=1;whiteSpace=wrap;html=1;fillColor=#fa6800;fontColor=#000000;strokeColor=#C73500;" vertex="1" parent="1">
          <mxGeometry x="260" y="170" width="130" height="320" as="geometry" />
        </mxCell>
        <mxCell id="hbhCbbF2ej5kDNIO_7wa-2" value="Auth" style="rounded=1;whiteSpace=wrap;html=1;fillColor=#60a917;strokeColor=#2D7600;fontColor=#ffffff;" vertex="1" parent="1">
          <mxGeometry x="460" y="170" width="120" height="60" as="geometry" />
        </mxCell>
        <mxCell id="hbhCbbF2ej5kDNIO_7wa-3" value="Meeting" style="rounded=1;whiteSpace=wrap;html=1;fillColor=#60a917;fontColor=#ffffff;strokeColor=#2D7600;" vertex="1" parent="1">
          <mxGeometry x="460" y="300" width="120" height="60" as="geometry" />
        </mxCell>
        <mxCell id="hbhCbbF2ej5kDNIO_7wa-4" value="Chat" style="rounded=1;whiteSpace=wrap;html=1;fillColor=#60a917;fontColor=#ffffff;strokeColor=#2D7600;" vertex="1" parent="1">
          <mxGeometry x="460" y="430" width="120" height="60" as="geometry" />
        </mxCell>
        <mxCell id="hbhCbbF2ej5kDNIO_7wa-5" value="" style="endArrow=classic;startArrow=classic;html=1;rounded=0;exitX=1;exitY=0.5;exitDx=0;exitDy=0;entryX=0;entryY=0.5;entryDx=0;entryDy=0;" edge="1" parent="1" source="hbhCbbF2ej5kDNIO_7wa-1" target="hbhCbbF2ej5kDNIO_7wa-2">
          <mxGeometry width="50" height="50" relative="1" as="geometry">
            <mxPoint x="450" y="400" as="sourcePoint" />
            <mxPoint x="500" y="350" as="targetPoint" />
          </mxGeometry>
        </mxCell>
        <mxCell id="hbhCbbF2ej5kDNIO_7wa-7" value="" style="endArrow=classic;startArrow=classic;html=1;rounded=0;exitX=1;exitY=0.5;exitDx=0;exitDy=0;entryX=0;entryY=0.5;entryDx=0;entryDy=0;" edge="1" parent="1" source="hbhCbbF2ej5kDNIO_7wa-1" target="hbhCbbF2ej5kDNIO_7wa-3">
          <mxGeometry width="50" height="50" relative="1" as="geometry">
            <mxPoint x="400" y="370" as="sourcePoint" />
            <mxPoint x="470" y="270" as="targetPoint" />
          </mxGeometry>
        </mxCell>
        <mxCell id="hbhCbbF2ej5kDNIO_7wa-8" value="" style="endArrow=classic;startArrow=classic;html=1;rounded=0;exitX=1;exitY=0.5;exitDx=0;exitDy=0;entryX=0;entryY=0.5;entryDx=0;entryDy=0;" edge="1" parent="1" source="hbhCbbF2ej5kDNIO_7wa-1" target="hbhCbbF2ej5kDNIO_7wa-4">
          <mxGeometry width="50" height="50" relative="1" as="geometry">
            <mxPoint x="410" y="380" as="sourcePoint" />
            <mxPoint x="480" y="280" as="targetPoint" />
          </mxGeometry>
        </mxCell>
        <mxCell id="hbhCbbF2ej5kDNIO_7wa-9" value="DB" style="shape=cylinder3;whiteSpace=wrap;html=1;boundedLbl=1;backgroundOutline=1;size=15;fillColor=#008a00;fontColor=#ffffff;strokeColor=#005700;" vertex="1" parent="1">
          <mxGeometry x="670" y="160" width="60" height="80" as="geometry" />
        </mxCell>
        <mxCell id="hbhCbbF2ej5kDNIO_7wa-10" value="" style="endArrow=classic;startArrow=classic;html=1;rounded=0;exitX=1;exitY=0.5;exitDx=0;exitDy=0;entryX=0;entryY=0.5;entryDx=0;entryDy=0;entryPerimeter=0;" edge="1" parent="1" source="hbhCbbF2ej5kDNIO_7wa-2" target="hbhCbbF2ej5kDNIO_7wa-9">
          <mxGeometry width="50" height="50" relative="1" as="geometry">
            <mxPoint x="450" y="340" as="sourcePoint" />
            <mxPoint x="500" y="290" as="targetPoint" />
          </mxGeometry>
        </mxCell>
        <mxCell id="hbhCbbF2ej5kDNIO_7wa-11" value="DB" style="shape=cylinder3;whiteSpace=wrap;html=1;boundedLbl=1;backgroundOutline=1;size=15;fillColor=#008a00;fontColor=#ffffff;strokeColor=#005700;" vertex="1" parent="1">
          <mxGeometry x="670" y="290" width="60" height="80" as="geometry" />
        </mxCell>
        <mxCell id="hbhCbbF2ej5kDNIO_7wa-12" value="" style="endArrow=classic;startArrow=classic;html=1;rounded=0;exitX=1;exitY=0.5;exitDx=0;exitDy=0;entryX=0;entryY=0.5;entryDx=0;entryDy=0;entryPerimeter=0;" edge="1" parent="1" target="hbhCbbF2ej5kDNIO_7wa-11">
          <mxGeometry width="50" height="50" relative="1" as="geometry">
            <mxPoint x="580" y="330" as="sourcePoint" />
            <mxPoint x="500" y="420" as="targetPoint" />
          </mxGeometry>
        </mxCell>
        <mxCell id="hbhCbbF2ej5kDNIO_7wa-13" value="DB" style="shape=cylinder3;whiteSpace=wrap;html=1;boundedLbl=1;backgroundOutline=1;size=15;fillColor=#008a00;fontColor=#ffffff;strokeColor=#005700;" vertex="1" parent="1">
          <mxGeometry x="670" y="420" width="60" height="80" as="geometry" />
        </mxCell>
        <mxCell id="hbhCbbF2ej5kDNIO_7wa-14" value="" style="endArrow=classic;startArrow=classic;html=1;rounded=0;exitX=1;exitY=0.5;exitDx=0;exitDy=0;entryX=0;entryY=0.5;entryDx=0;entryDy=0;entryPerimeter=0;" edge="1" parent="1" target="hbhCbbF2ej5kDNIO_7wa-13">
          <mxGeometry width="50" height="50" relative="1" as="geometry">
            <mxPoint x="580" y="460" as="sourcePoint" />
            <mxPoint x="500" y="550" as="targetPoint" />
          </mxGeometry>
        </mxCell>
        <mxCell id="hbhCbbF2ej5kDNIO_7wa-15" value="" style="shape=flexArrow;endArrow=classic;startArrow=classic;html=1;rounded=0;entryX=0.5;entryY=1;entryDx=0;entryDy=0;exitX=0.5;exitY=0;exitDx=0;exitDy=0;fillColor=#1ba1e2;strokeColor=#006EAF;" edge="1" parent="1" source="hbhCbbF2ej5kDNIO_7wa-3" target="hbhCbbF2ej5kDNIO_7wa-2">
          <mxGeometry width="100" height="100" relative="1" as="geometry">
            <mxPoint x="540" y="430" as="sourcePoint" />
            <mxPoint x="640" y="330" as="targetPoint" />
          </mxGeometry>
        </mxCell>
        <mxCell id="hbhCbbF2ej5kDNIO_7wa-16" value="" style="shape=flexArrow;endArrow=classic;startArrow=classic;html=1;rounded=0;exitX=1;exitY=0;exitDx=0;exitDy=0;fillColor=#1ba1e2;strokeColor=#006EAF;" edge="1" parent="1" source="hbhCbbF2ej5kDNIO_7wa-4">
          <mxGeometry width="100" height="100" relative="1" as="geometry">
            <mxPoint x="540" y="430" as="sourcePoint" />
            <mxPoint x="580" y="230" as="targetPoint" />
          </mxGeometry>
        </mxCell>
        <mxCell id="hbhCbbF2ej5kDNIO_7wa-17" value="gRPC" style="text;html=1;strokeColor=none;fillColor=none;align=center;verticalAlign=middle;whiteSpace=wrap;rounded=0;" vertex="1" parent="1">
          <mxGeometry x="580" y="380" width="60" height="30" as="geometry" />
        </mxCell>
        <mxCell id="hbhCbbF2ej5kDNIO_7wa-19" value="Waterbus Service" style="swimlane;whiteSpace=wrap;html=1;" vertex="1" parent="1">
          <mxGeometry x="220" y="120" width="570" height="420" as="geometry" />
        </mxCell>
        <mxCell id="hbhCbbF2ej5kDNIO_7wa-20" value="Client Side" style="swimlane;whiteSpace=wrap;html=1;" vertex="1" parent="1">
          <mxGeometry y="120" width="200" height="420" as="geometry" />
        </mxCell>
        <mxCell id="hbhCbbF2ej5kDNIO_7wa-21" value="Client" style="shape=umlActor;verticalLabelPosition=bottom;verticalAlign=top;html=1;outlineConnect=0;fillColor=#e3c800;fontColor=#000000;strokeColor=#B09500;" vertex="1" parent="hbhCbbF2ej5kDNIO_7wa-20">
          <mxGeometry x="85" y="170" width="30" height="60" as="geometry" />
        </mxCell>
        <mxCell id="hbhCbbF2ej5kDNIO_7wa-23" value="http restful" style="text;html=1;strokeColor=none;fillColor=none;align=center;verticalAlign=middle;whiteSpace=wrap;rounded=0;" vertex="1" parent="hbhCbbF2ej5kDNIO_7wa-20">
          <mxGeometry x="140" y="170" width="60" height="30" as="geometry" />
        </mxCell>
        <mxCell id="hbhCbbF2ej5kDNIO_7wa-22" value="" style="endArrow=classic;html=1;rounded=0;exitX=0.5;exitY=0.5;exitDx=0;exitDy=0;exitPerimeter=0;entryX=0;entryY=0.5;entryDx=0;entryDy=0;" edge="1" parent="1" source="hbhCbbF2ej5kDNIO_7wa-21" target="hbhCbbF2ej5kDNIO_7wa-1">
          <mxGeometry width="50" height="50" relative="1" as="geometry">
            <mxPoint x="370" y="390" as="sourcePoint" />
            <mxPoint x="420" y="340" as="targetPoint" />
          </mxGeometry>
        </mxCell>
      </root>
    </mxGraphModel>
  </diagram>
</mxfile>
